<?xml version="1.0" encoding="utf-8"?>
<svg viewBox="0 0 479 140" width="479px" height="140px" xmlns="http://www.w3.org/2000/svg" xmlns:bx="https://boxy-svg.com"><defs><bx:export><bx:file format="svg"/></bx:export></defs><path d="M 74.7 4.795 L 83.92 4.795 L 83.92 5.373 L 88.53 5.373 L 88.53 5.949 L 93.14 5.949 L 93.14 6.525 L 98.903 6.525 L 98.903 7.101 L 113.309 7.101 L 113.309 7.677 L 125.987 7.677 L 125.987 8.253 L 128.868 8.253 L 128.868 8.829 L 130.021 8.829 L 130.021 9.406 L 131.173 9.406 L 131.173 9.982 L 131.749 9.982 L 131.749 11.135 L 132.325 11.135 L 132.325 15.745 L 131.749 15.745 L 131.749 19.202 L 131.173 19.202 L 131.173 22.66 L 130.597 22.66 L 130.597 25.541 L 130.021 25.541 L 130.021 28.422 L 129.445 28.422 L 129.445 31.304 L 128.868 31.304 L 128.868 34.762 L 128.292 34.762 L 128.292 37.642 L 127.715 37.642 L 127.715 40.524 L 127.139 40.524 L 127.139 43.405 L 126.563 43.405 L 126.563 46.286 L 125.987 46.286 L 125.987 49.168 L 125.411 49.168 L 125.411 52.049 L 124.834 52.049 L 124.834 54.93 L 124.258 54.93 L 124.258 57.811 L 123.682 57.811 L 123.682 61.845 L 123.105 61.845 L 123.105 64.727 L 122.529 64.727 L 122.529 67.031 L 121.953 67.031 L 121.953 68.184 L 121.377 68.184 L 121.377 69.337 L 120.8 69.337 L 120.8 70.489 L 120.224 70.489 L 120.224 71.065 L 119.648 71.065 L 119.648 71.641 L 118.496 71.641 L 118.496 72.217 L 117.343 72.217 L 117.343 72.794 L 116.19 72.794 L 116.19 73.371 L 114.462 73.371 L 114.462 73.947 L 112.156 73.947 L 112.156 74.523 L 110.428 74.523 L 110.428 75.099 L 108.122 75.099 L 108.122 75.675 L 106.394 75.675 L 106.394 76.251 L 104.666 76.251 L 104.666 76.828 L 102.936 76.828 L 102.936 77.404 L 101.784 77.404 L 101.784 77.98 L 101.208 77.98 L 101.208 78.557 L 100.632 78.557 L 100.632 79.133 L 100.056 79.133 L 100.056 80.861 L 99.479 80.861 L 99.479 90.082 L 100.056 90.082 L 100.056 107.37 L 100.632 107.37 L 100.632 108.522 L 103.512 108.522 L 103.512 109.098 L 108.699 109.098 L 108.699 109.674 L 113.309 109.674 L 113.309 110.25 L 116.767 110.25 L 116.767 110.827 L 119.648 110.827 L 119.648 111.403 L 121.953 111.403 L 121.953 111.979 L 123.105 111.979 L 123.105 112.556 L 123.682 112.556 L 123.682 113.132 L 124.258 113.132 L 124.258 114.284 L 124.834 114.284 L 124.834 116.589 L 124.258 116.589 L 124.258 117.742 L 123.682 117.742 L 123.682 118.318 L 123.105 118.318 L 123.105 118.894 L 121.953 118.894 L 121.953 119.471 L 121.377 119.471 L 121.377 120.047 L 120.8 120.047 L 120.8 120.623 L 119.648 120.623 L 119.648 121.199 L 119.072 121.199 L 119.072 121.776 L 118.496 121.776 L 118.496 122.352 L 117.343 122.352 L 117.343 122.928 L 116.767 122.928 L 116.767 123.505 L 116.19 123.505 L 116.19 124.081 L 115.038 124.081 L 115.038 124.657 L 114.462 124.657 L 114.462 125.233 L 113.886 125.233 L 113.886 125.809 L 113.309 125.809 L 113.309 126.385 L 112.156 126.385 L 112.156 126.962 L 111.58 126.962 L 111.58 127.539 L 111.004 127.539 L 111.004 128.115 L 109.852 128.115 L 109.852 128.691 L 109.276 128.691 L 109.276 129.267 L 108.699 129.267 L 108.699 129.843 L 108.122 129.843 L 108.122 130.419 L 106.97 130.419 L 106.97 130.995 L 106.394 130.995 L 106.394 131.572 L 105.818 131.572 L 105.818 132.149 L 105.242 132.149 L 105.242 132.725 L 104.09 132.725 L 104.09 133.301 L 102.936 133.301 L 102.936 133.877 L 99.479 133.877 L 99.479 133.301 L 98.903 133.301 L 98.903 132.149 L 98.326 132.149 L 98.326 130.995 L 97.75 130.995 L 97.75 117.166 L 97.174 117.166 L 97.174 111.403 L 95.445 111.403 L 95.445 110.827 L 89.683 110.827 L 89.683 110.25 L 83.92 110.25 L 83.92 109.674 L 77.005 109.674 L 77.005 109.098 L 62.599 109.098 L 62.599 109.674 L 60.294 109.674 L 60.294 110.25 L 58.565 110.25 L 58.565 110.827 L 56.836 110.827 L 56.836 111.403 L 54.531 111.403 L 54.531 111.979 L 52.802 111.979 L 52.802 112.556 L 51.074 112.556 L 51.074 113.132 L 49.345 113.132 L 49.345 113.708 L 47.04 113.708 L 47.04 114.284 L 45.311 114.284 L 45.311 114.861 L 43.582 114.861 L 43.582 115.437 L 41.854 115.437 L 41.854 116.013 L 39.548 116.013 L 39.548 116.589 L 37.82 116.589 L 37.82 117.166 L 36.091 117.166 L 36.091 117.742 L 34.362 117.742 L 34.362 118.318 L 33.21 118.318 L 33.21 118.894 L 31.481 118.894 L 31.481 119.471 L 29.752 119.471 L 29.752 120.047 L 28.6 120.047 L 28.6 120.623 L 26.871 120.623 L 26.871 121.199 L 25.142 121.199 L 25.142 121.776 L 23.99 121.776 L 23.99 122.352 L 21.108 122.352 L 21.108 122.928 L 17.651 122.928 L 17.651 122.352 L 16.499 122.352 L 16.499 121.776 L 15.345 121.776 L 15.345 121.199 L 14.769 121.199 L 14.769 120.047 L 14.193 120.047 L 14.193 118.894 L 13.617 118.894 L 13.617 117.166 L 13.041 117.166 L 13.041 113.132 L 12.465 113.132 L 12.465 107.37 L 11.889 107.37 L 11.889 101.03 L 11.312 101.03 L 11.312 95.268 L 10.735 95.268 L 10.735 89.506 L 10.159 89.506 L 10.159 83.743 L 9.583 83.743 L 9.583 78.557 L 9.007 78.557 L 9.007 70.489 L 9.583 70.489 L 9.583 68.761 L 10.159 68.761 L 10.159 68.184 L 10.735 68.184 L 10.735 67.031 L 11.312 67.031 L 11.312 66.455 L 12.465 66.455 L 12.465 65.879 L 13.041 65.879 L 13.041 65.303 L 14.769 65.303 L 14.769 64.727 L 17.075 64.727 L 17.075 64.151 L 20.532 64.151 L 20.532 63.574 L 25.718 63.574 L 25.718 62.997 L 31.481 62.997 L 31.481 62.421 L 36.091 62.421 L 36.091 61.845 L 39.548 61.845 L 39.548 61.269 L 43.006 61.269 L 43.006 60.693 L 44.158 60.693 L 44.158 60.117 L 45.311 60.117 L 45.311 59.54 L 46.464 59.54 L 46.464 58.964 L 47.04 58.964 L 47.04 58.387 L 47.616 58.387 L 47.616 57.811 L 48.192 57.811 L 48.192 56.659 L 48.768 56.659 L 48.768 56.083 L 49.345 56.083 L 49.345 54.93 L 49.921 54.93 L 49.921 53.778 L 50.498 53.778 L 50.498 52.625 L 51.074 52.625 L 51.074 51.473 L 51.65 51.473 L 51.65 50.32 L 52.226 50.32 L 52.226 49.168 L 52.802 49.168 L 52.802 48.015 L 53.379 48.015 L 53.379 46.286 L 53.955 46.286 L 53.955 45.134 L 54.531 45.134 L 54.531 43.405 L 55.107 43.405 L 55.107 42.252 L 55.684 42.252 L 55.684 41.1 L 56.26 41.1 L 56.26 39.372 L 56.836 39.372 L 56.836 38.218 L 57.412 38.218 L 57.412 37.066 L 57.989 37.066 L 57.989 35.338 L 58.565 35.338 L 58.565 34.185 L 59.141 34.185 L 59.141 32.456 L 59.717 32.456 L 59.717 31.304 L 60.294 31.304 L 60.294 30.151 L 60.87 30.151 L 60.87 28.422 L 61.446 28.422 L 61.446 27.27 L 62.023 27.27 L 62.023 26.118 L 62.599 26.118 L 62.599 24.388 L 63.175 24.388 L 63.175 23.236 L 63.751 23.236 L 63.751 22.084 L 64.327 22.084 L 64.327 20.355 L 64.904 20.355 L 64.904 19.202 L 65.48 19.202 L 65.48 18.05 L 66.057 18.05 L 66.057 16.321 L 66.633 16.321 L 66.633 15.169 L 67.209 15.169 L 67.209 13.44 L 67.785 13.44 L 67.785 12.287 L 68.361 12.287 L 68.361 11.135 L 68.937 11.135 L 68.937 9.982 L 69.513 9.982 L 69.513 9.406 L 70.09 9.406 L 70.09 8.253 L 70.667 8.253 L 70.667 7.677 L 71.243 7.677 L 71.243 7.101 L 71.819 7.101 L 71.819 6.525 L 72.395 6.525 L 72.395 5.949 L 72.971 5.949 L 72.971 5.373 L 74.7 5.373 L 74.7 4.795 Z M 75.277 6.525 L 75.277 7.101 L 73.547 7.101 L 73.547 7.677 L 72.971 7.677 L 72.971 8.253 L 72.395 8.253 L 72.395 8.829 L 71.819 8.829 L 71.819 9.406 L 71.243 9.406 L 71.243 10.559 L 70.667 10.559 L 70.667 11.135 L 70.09 11.135 L 70.09 12.287 L 69.513 12.287 L 69.513 13.44 L 68.937 13.44 L 68.937 15.169 L 68.361 15.169 L 68.361 16.321 L 67.785 16.321 L 67.785 17.473 L 67.209 17.473 L 67.209 19.202 L 66.633 19.202 L 66.633 20.355 L 66.057 20.355 L 66.057 22.084 L 65.48 22.084 L 65.48 23.236 L 64.904 23.236 L 64.904 24.388 L 64.327 24.388 L 64.327 25.541 L 63.751 25.541 L 63.751 27.27 L 63.175 27.27 L 63.175 28.422 L 62.599 28.422 L 62.599 29.575 L 62.023 29.575 L 62.023 31.304 L 61.446 31.304 L 61.446 32.456 L 60.87 32.456 L 60.87 34.185 L 60.294 34.185 L 60.294 35.338 L 59.717 35.338 L 59.717 36.49 L 59.141 36.49 L 59.141 38.218 L 58.565 38.218 L 58.565 39.372 L 57.989 39.372 L 57.989 40.524 L 57.412 40.524 L 57.412 42.252 L 56.836 42.252 L 56.836 43.405 L 56.26 43.405 L 56.26 45.134 L 55.684 45.134 L 55.684 46.286 L 55.107 46.286 L 55.107 47.439 L 54.531 47.439 L 54.531 49.168 L 53.955 49.168 L 53.955 50.32 L 53.379 50.32 L 53.379 51.473 L 52.802 51.473 L 52.802 52.625 L 52.226 52.625 L 52.226 53.778 L 51.65 53.778 L 51.65 54.93 L 51.074 54.93 L 51.074 56.083 L 50.498 56.083 L 50.498 57.811 L 52.226 57.811 L 52.226 58.387 L 53.379 58.387 L 53.379 58.964 L 54.531 58.964 L 54.531 59.54 L 55.107 59.54 L 55.107 60.117 L 55.684 60.117 L 55.684 60.693 L 56.26 60.693 L 56.26 61.269 L 57.412 61.269 L 57.412 61.845 L 57.989 61.845 L 57.989 62.421 L 58.565 62.421 L 58.565 62.997 L 59.717 62.997 L 59.717 63.574 L 60.294 63.574 L 60.294 64.151 L 61.446 64.151 L 61.446 64.727 L 62.023 64.727 L 62.023 65.303 L 63.175 65.303 L 63.175 65.879 L 64.327 65.879 L 64.327 66.455 L 64.904 66.455 L 64.904 67.031 L 66.057 67.031 L 66.057 67.607 L 67.785 67.607 L 67.785 68.184 L 68.937 68.184 L 68.937 68.761 L 70.09 68.761 L 70.09 69.337 L 71.819 69.337 L 71.819 69.913 L 74.123 69.913 L 74.123 70.489 L 76.429 70.489 L 76.429 71.065 L 79.887 71.065 L 79.887 71.641 L 89.106 71.641 L 89.106 72.217 L 95.445 72.217 L 95.445 71.641 L 102.936 71.641 L 102.936 71.065 L 106.394 71.065 L 106.394 70.489 L 108.699 70.489 L 108.699 69.913 L 110.428 69.913 L 110.428 69.337 L 111.58 69.337 L 111.58 68.761 L 112.733 68.761 L 112.733 68.184 L 113.886 68.184 L 113.886 67.607 L 114.462 67.607 L 114.462 67.031 L 115.614 67.031 L 115.614 66.455 L 116.767 66.455 L 116.767 65.879 L 117.343 65.879 L 117.343 65.303 L 119.072 65.303 L 119.072 64.727 L 121.377 64.727 L 121.377 62.421 L 121.953 62.421 L 121.953 58.964 L 122.529 58.964 L 122.529 56.083 L 123.105 56.083 L 123.105 53.201 L 123.682 53.201 L 123.682 50.32 L 124.258 50.32 L 124.258 47.439 L 124.834 47.439 L 124.834 43.981 L 125.411 43.981 L 125.411 41.1 L 125.987 41.1 L 125.987 38.218 L 126.563 38.218 L 126.563 35.338 L 127.139 35.338 L 127.139 32.456 L 127.715 32.456 L 127.715 29.575 L 128.292 29.575 L 128.292 26.118 L 128.868 26.118 L 128.868 23.236 L 129.445 23.236 L 129.445 19.779 L 130.021 19.779 L 130.021 16.897 L 130.597 16.897 L 130.597 11.711 L 130.021 11.711 L 130.021 10.559 L 128.868 10.559 L 128.868 9.982 L 127.139 9.982 L 127.139 9.406 L 116.19 9.406 L 116.19 8.829 L 100.632 8.829 L 100.632 8.253 L 93.716 8.253 L 93.716 7.677 L 89.683 7.677 L 89.683 7.101 L 85.073 7.101 L 85.073 6.525 L 75.277 6.525 Z M 49.345 58.387 L 49.345 58.964 L 48.768 58.964 L 48.768 59.54 L 48.192 59.54 L 48.192 60.117 L 47.616 60.117 L 47.616 60.693 L 47.04 60.693 L 47.04 61.269 L 45.888 61.269 L 45.888 61.845 L 44.734 61.845 L 44.734 62.421 L 43.006 62.421 L 43.006 62.997 L 40.124 62.997 L 40.124 63.574 L 36.091 63.574 L 36.091 64.151 L 30.905 64.151 L 30.905 64.727 L 25.142 64.727 L 25.142 65.303 L 20.532 65.303 L 20.532 65.879 L 17.075 65.879 L 17.075 66.455 L 15.345 66.455 L 15.345 67.031 L 13.617 67.031 L 13.617 67.607 L 13.041 67.607 L 13.041 68.184 L 12.465 68.184 L 12.465 68.761 L 11.889 68.761 L 11.889 69.337 L 11.312 69.337 L 11.312 69.913 L 10.735 69.913 L 10.735 78.557 L 11.312 78.557 L 11.312 84.319 L 11.889 84.319 L 11.889 86.048 L 14.769 86.048 L 14.769 86.624 L 18.227 86.624 L 18.227 87.2 L 21.685 87.2 L 21.685 87.777 L 25.142 87.777 L 25.142 88.353 L 28.6 88.353 L 28.6 88.929 L 32.634 88.929 L 32.634 89.506 L 36.091 89.506 L 36.091 90.082 L 40.124 90.082 L 40.124 90.658 L 44.734 90.658 L 44.734 91.234 L 49.921 91.234 L 49.921 91.81 L 56.26 91.81 L 56.26 92.386 L 63.175 92.386 L 63.175 92.963 L 70.09 92.963 L 70.09 93.539 L 77.005 93.539 L 77.005 94.116 L 84.497 94.116 L 84.497 94.692 L 91.988 94.692 L 91.988 95.268 L 97.174 95.268 L 97.174 94.116 L 97.75 94.116 L 97.75 81.438 L 98.326 81.438 L 98.326 79.133 L 98.903 79.133 L 98.903 77.98 L 99.479 77.98 L 99.479 77.404 L 100.056 77.404 L 100.056 76.828 L 100.632 76.828 L 100.632 76.251 L 101.208 76.251 L 101.208 75.675 L 102.36 75.675 L 102.36 75.099 L 104.09 75.099 L 104.09 74.523 L 105.818 74.523 L 105.818 73.947 L 108.122 73.947 L 108.122 73.371 L 109.852 73.371 L 109.852 72.794 L 112.156 72.794 L 112.156 72.217 L 113.886 72.217 L 113.886 71.641 L 115.614 71.641 L 115.614 71.065 L 117.343 71.065 L 117.343 70.489 L 117.919 70.489 L 117.919 69.913 L 119.072 69.913 L 119.072 69.337 L 119.648 69.337 L 119.648 68.184 L 120.224 68.184 L 120.224 67.031 L 120.8 67.031 L 120.8 65.879 L 118.496 65.879 L 118.496 66.455 L 117.343 66.455 L 117.343 67.031 L 116.767 67.031 L 116.767 67.607 L 115.614 67.607 L 115.614 68.184 L 115.038 68.184 L 115.038 68.761 L 113.886 68.761 L 113.886 69.337 L 112.733 69.337 L 112.733 69.913 L 111.58 69.913 L 111.58 70.489 L 109.852 70.489 L 109.852 71.065 L 108.122 71.065 L 108.122 71.641 L 105.818 71.641 L 105.818 72.217 L 101.784 72.217 L 101.784 72.794 L 81.039 72.794 L 81.039 72.217 L 76.429 72.217 L 76.429 71.641 L 73.547 71.641 L 73.547 71.065 L 71.819 71.065 L 71.819 70.489 L 70.09 70.489 L 70.09 69.913 L 68.361 69.913 L 68.361 69.337 L 67.209 69.337 L 67.209 68.761 L 66.057 68.761 L 66.057 68.184 L 64.904 68.184 L 64.904 67.607 L 63.751 67.607 L 63.751 67.031 L 62.599 67.031 L 62.599 66.455 L 62.023 66.455 L 62.023 65.879 L 60.87 65.879 L 60.87 65.303 L 60.294 65.303 L 60.294 64.727 L 59.141 64.727 L 59.141 64.151 L 58.565 64.151 L 58.565 63.574 L 57.412 63.574 L 57.412 62.997 L 56.836 62.997 L 56.836 62.421 L 56.26 62.421 L 56.26 61.845 L 55.107 61.845 L 55.107 61.269 L 54.531 61.269 L 54.531 60.693 L 53.955 60.693 L 53.955 60.117 L 52.802 60.117 L 52.802 59.54 L 52.226 59.54 L 52.226 58.964 L 50.498 58.964 L 50.498 58.387 L 49.345 58.387 Z M 13.617 87.777 L 13.617 92.963 L 14.193 92.963 L 14.193 98.726 L 14.769 98.726 L 14.769 105.064 L 15.345 105.064 L 15.345 110.827 L 15.922 110.827 L 15.922 116.013 L 16.499 116.013 L 16.499 118.318 L 17.075 118.318 L 17.075 118.894 L 17.651 118.894 L 17.651 119.471 L 22.837 119.471 L 22.837 118.894 L 24.566 118.894 L 24.566 118.318 L 26.295 118.318 L 26.295 117.742 L 27.447 117.742 L 27.447 117.166 L 29.176 117.166 L 29.176 116.589 L 30.328 116.589 L 30.328 116.013 L 32.057 116.013 L 32.057 115.437 L 33.786 115.437 L 33.786 114.861 L 35.514 114.861 L 35.514 114.284 L 37.244 114.284 L 37.244 113.708 L 38.972 113.708 L 38.972 113.132 L 40.701 113.132 L 40.701 112.556 L 42.43 112.556 L 42.43 111.979 L 44.734 111.979 L 44.734 111.403 L 46.464 111.403 L 46.464 110.827 L 48.192 110.827 L 48.192 110.25 L 49.921 110.25 L 49.921 109.674 L 52.226 109.674 L 52.226 109.098 L 53.955 109.098 L 53.955 108.522 L 55.684 108.522 L 55.684 107.946 L 57.412 107.946 L 57.412 107.37 L 59.717 107.37 L 59.717 106.793 L 61.446 106.793 L 61.446 106.216 L 66.633 106.216 L 66.633 105.64 L 72.395 105.64 L 72.395 106.216 L 81.039 106.216 L 81.039 106.793 L 86.801 106.793 L 86.801 107.37 L 92.564 107.37 L 92.564 107.946 L 97.174 107.946 L 97.174 96.996 L 93.716 96.996 L 93.716 96.42 L 86.225 96.42 L 86.225 95.844 L 78.734 95.844 L 78.734 95.268 L 71.243 95.268 L 71.243 94.692 L 64.327 94.692 L 64.327 94.116 L 57.412 94.116 L 57.412 93.539 L 51.074 93.539 L 51.074 92.963 L 45.888 92.963 L 45.888 92.386 L 41.278 92.386 L 41.278 91.81 L 37.244 91.81 L 37.244 91.234 L 33.21 91.234 L 33.21 90.658 L 29.752 90.658 L 29.752 90.082 L 25.718 90.082 L 25.718 89.506 L 22.261 89.506 L 22.261 88.929 L 18.803 88.929 L 18.803 88.353 L 15.345 88.353 L 15.345 87.777 L 13.617 87.777 Z M 100.632 111.979 L 100.632 129.843 L 101.208 129.843 L 101.208 130.995 L 101.784 130.995 L 101.784 130.419 L 102.936 130.419 L 102.936 129.843 L 103.512 129.843 L 103.512 129.267 L 104.09 129.267 L 104.09 128.691 L 105.242 128.691 L 105.242 128.115 L 105.818 128.115 L 105.818 127.539 L 106.394 127.539 L 106.394 126.962 L 106.97 126.962 L 106.97 126.385 L 108.122 126.385 L 108.122 125.809 L 108.699 125.809 L 108.699 125.233 L 109.276 125.233 L 109.276 124.657 L 110.428 124.657 L 110.428 124.081 L 111.004 124.081 L 111.004 123.505 L 111.58 123.505 L 111.58 122.928 L 112.156 122.928 L 112.156 122.352 L 113.309 122.352 L 113.309 121.776 L 113.886 121.776 L 113.886 121.199 L 114.462 121.199 L 114.462 120.623 L 115.614 120.623 L 115.614 120.047 L 116.19 120.047 L 116.19 119.471 L 116.767 119.471 L 116.767 118.894 L 117.919 118.894 L 117.919 118.318 L 118.496 118.318 L 118.496 117.742 L 119.072 117.742 L 119.072 117.166 L 120.224 117.166 L 120.224 116.589 L 120.8 116.589 L 120.8 116.013 L 121.377 116.013 L 121.377 114.861 L 120.224 114.861 L 120.224 114.284 L 117.919 114.284 L 117.919 113.708 L 114.462 113.708 L 114.462 113.132 L 110.428 113.132 L 110.428 112.556 L 105.818 112.556 L 105.818 111.979 L 100.632 111.979 Z" style="fill: rgb(251, 251, 251);"/><path d="M 177.274 45.71 L 186.494 45.71 L 186.494 46.286 L 187.07 46.286 L 187.07 48.015 L 187.646 48.015 L 187.646 49.168 L 188.222 49.168 L 188.222 50.896 L 188.799 50.896 L 188.799 52.625 L 189.375 52.625 L 189.375 54.354 L 189.951 54.354 L 189.951 55.506 L 190.527 55.506 L 190.527 57.235 L 191.103 57.235 L 191.103 58.964 L 191.68 58.964 L 191.68 60.117 L 192.256 60.117 L 192.256 61.845 L 192.833 61.845 L 192.833 63.574 L 193.409 63.574 L 193.409 65.303 L 193.985 65.303 L 193.985 66.455 L 194.561 66.455 L 194.561 68.184 L 195.137 68.184 L 195.137 69.913 L 195.713 69.913 L 195.713 71.641 L 196.29 71.641 L 196.29 72.794 L 196.866 72.794 L 196.866 74.523 L 197.443 74.523 L 197.443 76.251 L 198.019 76.251 L 198.019 77.98 L 198.595 77.98 L 198.595 79.133 L 199.171 79.133 L 199.171 80.861 L 199.747 80.861 L 199.747 82.59 L 200.323 82.59 L 200.323 84.319 L 200.9 84.319 L 200.9 85.472 L 201.477 85.472 L 201.477 87.2 L 202.053 87.2 L 202.053 88.929 L 202.629 88.929 L 202.629 90.658 L 203.205 90.658 L 203.205 91.81 L 203.781 91.81 L 203.781 93.539 L 204.357 93.539 L 204.357 95.268 L 195.137 95.268 L 195.137 94.116 L 194.561 94.116 L 194.561 92.386 L 193.985 92.386 L 193.985 91.234 L 193.409 91.234 L 193.409 89.506 L 192.833 89.506 L 192.833 87.777 L 192.256 87.777 L 192.256 86.624 L 191.68 86.624 L 191.68 84.895 L 191.103 84.895 L 191.103 83.743 L 190.527 83.743 L 190.527 82.014 L 189.951 82.014 L 189.951 80.861 L 189.375 80.861 L 189.375 79.133 L 188.799 79.133 L 188.799 77.404 L 188.222 77.404 L 188.222 76.251 L 187.646 76.251 L 187.646 74.523 L 187.07 74.523 L 187.07 72.794 L 186.494 72.794 L 186.494 71.065 L 185.917 71.065 L 185.917 69.913 L 185.341 69.913 L 185.341 68.184 L 184.765 68.184 L 184.765 66.455 L 184.188 66.455 L 184.188 64.727 L 183.612 64.727 L 183.612 62.997 L 183.036 62.997 L 183.036 61.269 L 182.46 61.269 L 182.46 60.117 L 181.884 60.117 L 181.884 58.387 L 181.307 58.387 L 181.307 56.659 L 180.731 56.659 L 180.731 54.93 L 180.155 54.93 L 180.155 53.201 L 179.578 53.201 L 179.578 52.049 L 179.002 52.049 L 179.002 50.32 L 178.426 50.32 L 178.426 48.591 L 177.85 48.591 L 177.85 46.862 L 177.274 46.862 L 177.274 45.71 Z" style="fill: rgb(251, 251, 251);"/><path d="M 213.001 45.71 L 240.086 45.71 L 240.086 46.286 L 242.966 46.286 L 242.966 46.862 L 244.119 46.862 L 244.119 47.439 L 245.848 47.439 L 245.848 48.015 L 246.424 48.015 L 246.424 48.591 L 247.576 48.591 L 247.576 49.168 L 248.153 49.168 L 248.153 49.744 L 249.305 49.744 L 249.305 50.896 L 249.882 50.896 L 249.882 51.473 L 250.458 51.473 L 250.458 52.049 L 251.034 52.049 L 251.034 52.625 L 251.61 52.625 L 251.61 53.778 L 252.187 53.778 L 252.187 54.93 L 252.763 54.93 L 252.763 57.235 L 253.339 57.235 L 253.339 60.693 L 253.915 60.693 L 253.915 62.421 L 253.339 62.421 L 253.339 65.879 L 252.763 65.879 L 252.763 67.607 L 252.187 67.607 L 252.187 69.337 L 251.61 69.337 L 251.61 69.913 L 251.034 69.913 L 251.034 70.489 L 250.458 70.489 L 250.458 71.641 L 249.882 71.641 L 249.882 72.217 L 249.305 72.217 L 249.305 72.794 L 248.153 72.794 L 248.153 73.371 L 247.576 73.371 L 247.576 73.947 L 247 73.947 L 247 74.523 L 245.848 74.523 L 245.848 75.099 L 244.696 75.099 L 244.696 75.675 L 242.966 75.675 L 242.966 76.251 L 241.814 76.251 L 241.814 76.828 L 242.39 76.828 L 242.39 77.404 L 242.966 77.404 L 242.966 78.557 L 243.543 78.557 L 243.543 79.133 L 244.119 79.133 L 244.119 79.709 L 244.696 79.709 L 244.696 80.861 L 245.272 80.861 L 245.272 81.438 L 245.848 81.438 L 245.848 82.59 L 246.424 82.59 L 246.424 83.167 L 247 83.167 L 247 83.743 L 247.576 83.743 L 247.576 84.895 L 248.153 84.895 L 248.153 85.472 L 248.729 85.472 L 248.729 86.048 L 249.305 86.048 L 249.305 87.2 L 249.882 87.2 L 249.882 87.777 L 250.458 87.777 L 250.458 88.929 L 251.034 88.929 L 251.034 89.506 L 251.61 89.506 L 251.61 90.082 L 252.187 90.082 L 252.187 91.234 L 252.763 91.234 L 252.763 91.81 L 253.339 91.81 L 253.339 92.963 L 253.915 92.963 L 253.915 93.539 L 254.492 93.539 L 254.492 94.116 L 255.068 94.116 L 255.068 95.268 L 244.696 95.268 L 244.696 94.692 L 244.119 94.692 L 244.119 93.539 L 243.543 93.539 L 243.543 92.963 L 242.966 92.963 L 242.966 91.81 L 242.39 91.81 L 242.39 91.234 L 241.814 91.234 L 241.814 90.658 L 241.238 90.658 L 241.238 89.506 L 240.662 89.506 L 240.662 88.929 L 240.086 88.929 L 240.086 87.777 L 239.509 87.777 L 239.509 87.2 L 238.932 87.2 L 238.932 86.048 L 238.356 86.048 L 238.356 85.472 L 237.78 85.472 L 237.78 84.895 L 237.204 84.895 L 237.204 83.743 L 236.628 83.743 L 236.628 83.167 L 236.052 83.167 L 236.052 82.014 L 235.476 82.014 L 235.476 81.438 L 234.899 81.438 L 234.899 80.285 L 234.322 80.285 L 234.322 79.709 L 233.746 79.709 L 233.746 79.133 L 233.17 79.133 L 233.17 77.98 L 221.645 77.98 L 221.645 95.268 L 213.001 95.268 L 213.001 69.913 L 238.356 69.913 L 238.356 69.337 L 240.086 69.337 L 240.086 68.761 L 241.238 68.761 L 241.238 68.184 L 241.814 68.184 L 241.814 67.607 L 242.39 67.607 L 242.39 67.031 L 242.966 67.031 L 242.966 66.455 L 243.543 66.455 L 243.543 65.303 L 244.119 65.303 L 244.119 64.151 L 244.696 64.151 L 244.696 58.964 L 244.119 58.964 L 244.119 57.811 L 243.543 57.811 L 243.543 56.659 L 242.966 56.659 L 242.966 56.083 L 242.39 56.083 L 242.39 55.506 L 241.238 55.506 L 241.238 54.93 L 240.086 54.93 L 240.086 54.354 L 238.356 54.354 L 238.356 53.778 L 213.001 53.778 L 213.001 45.71 Z" style="fill: rgb(251, 251, 251);"/><path d="M 266.593 45.71 L 275.813 45.71 L 275.813 95.268 L 267.169 95.268 L 267.169 94.692 L 266.593 94.692 L 266.593 45.71 Z" style="fill: rgb(251, 251, 251);"/><path d="M 299.44 45.71 L 308.084 45.71 L 308.084 95.268 L 299.44 95.268 L 299.44 74.523 L 284.457 74.523 L 284.457 73.947 L 283.881 73.947 L 283.881 66.455 L 284.457 66.455 L 284.457 65.879 L 299.44 65.879 L 299.44 45.71 Z" style="fill: rgb(251, 251, 251);"/><path d="M 344.387 45.71 L 346.693 45.71 L 346.693 46.286 L 348.998 46.286 L 348.998 46.862 L 350.726 46.862 L 350.726 47.439 L 351.879 47.439 L 351.879 48.015 L 352.455 48.015 L 352.455 48.591 L 353.608 48.591 L 353.608 49.168 L 354.76 49.168 L 354.76 49.744 L 355.336 49.744 L 355.336 50.32 L 355.912 50.32 L 355.912 50.896 L 357.065 50.896 L 357.065 51.473 L 357.642 51.473 L 357.642 52.049 L 358.218 52.049 L 358.218 52.625 L 358.794 52.625 L 358.794 53.201 L 359.37 53.201 L 359.37 54.354 L 359.946 54.354 L 359.946 54.93 L 360.522 54.93 L 360.522 55.506 L 361.099 55.506 L 361.099 56.659 L 361.676 56.659 L 361.676 57.811 L 362.252 57.811 L 362.252 58.964 L 362.828 58.964 L 362.828 59.54 L 363.404 59.54 L 363.404 61.269 L 363.98 61.269 L 363.98 63.574 L 364.556 63.574 L 364.556 65.303 L 365.132 65.303 L 365.132 75.675 L 364.556 75.675 L 364.556 77.404 L 363.98 77.404 L 363.98 79.709 L 363.404 79.709 L 363.404 80.861 L 362.828 80.861 L 362.828 82.014 L 362.252 82.014 L 362.252 83.167 L 361.676 83.167 L 361.676 84.319 L 361.099 84.319 L 361.099 84.895 L 360.522 84.895 L 360.522 85.472 L 359.946 85.472 L 359.946 86.624 L 359.37 86.624 L 359.37 87.2 L 358.794 87.2 L 358.794 87.777 L 358.218 87.777 L 358.218 88.353 L 357.642 88.353 L 357.642 88.929 L 357.065 88.929 L 357.065 89.506 L 356.489 89.506 L 356.489 90.082 L 355.336 90.082 L 355.336 90.658 L 354.76 90.658 L 354.76 91.234 L 353.608 91.234 L 353.608 91.81 L 353.031 91.81 L 353.031 92.386 L 351.879 92.386 L 351.879 92.963 L 350.726 92.963 L 350.726 93.539 L 348.998 93.539 L 348.998 94.116 L 347.269 94.116 L 347.269 94.692 L 344.964 94.692 L 344.964 95.268 L 344.387 95.268 L 344.387 87.2 L 344.964 87.2 L 344.964 86.624 L 346.693 86.624 L 346.693 86.048 L 347.845 86.048 L 347.845 85.472 L 348.998 85.472 L 348.998 84.895 L 349.574 84.895 L 349.574 84.319 L 350.15 84.319 L 350.15 83.743 L 350.726 83.743 L 350.726 83.167 L 351.879 83.167 L 351.879 82.014 L 352.455 82.014 L 352.455 81.438 L 353.031 81.438 L 353.031 80.861 L 353.608 80.861 L 353.608 79.709 L 354.184 79.709 L 354.184 78.557 L 354.76 78.557 L 354.76 77.404 L 355.336 77.404 L 355.336 75.675 L 355.912 75.675 L 355.912 73.947 L 356.489 73.947 L 356.489 66.455 L 355.912 66.455 L 355.912 64.727 L 355.336 64.727 L 355.336 62.997 L 354.76 62.997 L 354.76 61.845 L 354.184 61.845 L 354.184 60.693 L 353.608 60.693 L 353.608 60.117 L 353.031 60.117 L 353.031 58.964 L 352.455 58.964 L 352.455 58.387 L 351.879 58.387 L 351.879 57.811 L 351.302 57.811 L 351.302 57.235 L 350.726 57.235 L 350.726 56.659 L 350.15 56.659 L 350.15 56.083 L 348.998 56.083 L 348.998 55.506 L 347.845 55.506 L 347.845 54.93 L 347.269 54.93 L 347.269 54.354 L 345.54 54.354 L 345.54 53.778 L 344.387 53.778 L 344.387 45.71 Z" style="fill: rgb(251, 251, 251);"/><path d="M 369.166 45.71 L 378.963 45.71 L 378.963 46.286 L 379.539 46.286 L 379.539 47.439 L 380.115 47.439 L 380.115 48.591 L 380.692 48.591 L 380.692 49.168 L 381.268 49.168 L 381.268 50.32 L 381.844 50.32 L 381.844 50.896 L 382.42 50.896 L 382.42 52.049 L 382.997 52.049 L 382.997 52.625 L 383.573 52.625 L 383.573 53.778 L 384.149 53.778 L 384.149 54.93 L 384.725 54.93 L 384.725 55.506 L 385.301 55.506 L 385.301 56.659 L 385.878 56.659 L 385.878 57.235 L 386.454 57.235 L 386.454 58.387 L 387.031 58.387 L 387.031 58.964 L 387.607 58.964 L 387.607 60.117 L 388.183 60.117 L 388.183 60.693 L 388.759 60.693 L 388.759 61.845 L 389.335 61.845 L 389.335 62.997 L 389.911 62.997 L 389.911 63.574 L 390.488 63.574 L 390.488 64.727 L 391.064 64.727 L 391.064 65.303 L 391.641 65.303 L 391.641 66.455 L 392.217 66.455 L 392.217 67.031 L 392.793 67.031 L 392.793 68.184 L 393.369 68.184 L 393.369 69.337 L 393.945 69.337 L 393.945 68.184 L 394.521 68.184 L 394.521 67.607 L 395.098 67.607 L 395.098 66.455 L 395.675 66.455 L 395.675 65.303 L 396.251 65.303 L 396.251 64.727 L 396.827 64.727 L 396.827 63.574 L 397.403 63.574 L 397.403 62.997 L 397.979 62.997 L 397.979 61.845 L 398.555 61.845 L 398.555 61.269 L 399.131 61.269 L 399.131 60.117 L 399.708 60.117 L 399.708 59.54 L 400.285 59.54 L 400.285 58.387 L 400.861 58.387 L 400.861 57.235 L 401.437 57.235 L 401.437 56.659 L 402.013 56.659 L 402.013 55.506 L 402.589 55.506 L 402.589 54.93 L 403.165 54.93 L 403.165 53.778 L 403.741 53.778 L 403.741 53.201 L 404.318 53.201 L 404.318 52.049 L 404.894 52.049 L 404.894 51.473 L 405.471 51.473 L 405.471 50.32 L 406.047 50.32 L 406.047 49.744 L 406.623 49.744 L 406.623 48.591 L 407.199 48.591 L 407.199 47.439 L 407.775 47.439 L 407.775 46.862 L 408.352 46.862 L 408.352 45.71 L 418.148 45.71 L 418.148 46.862 L 417.572 46.862 L 417.572 47.439 L 416.996 47.439 L 416.996 48.591 L 416.419 48.591 L 416.419 49.168 L 415.843 49.168 L 415.843 50.32 L 415.267 50.32 L 415.267 51.473 L 414.691 51.473 L 414.691 52.049 L 414.114 52.049 L 414.114 53.201 L 413.538 53.201 L 413.538 53.778 L 412.962 53.778 L 412.962 54.93 L 412.386 54.93 L 412.386 56.083 L 411.809 56.083 L 411.809 56.659 L 411.233 56.659 L 411.233 57.811 L 410.657 57.811 L 410.657 58.387 L 410.081 58.387 L 410.081 59.54 L 409.504 59.54 L 409.504 60.693 L 408.928 60.693 L 408.928 61.269 L 408.352 61.269 L 408.352 62.421 L 407.775 62.421 L 407.775 63.574 L 407.199 63.574 L 407.199 64.151 L 406.623 64.151 L 406.623 65.303 L 406.047 65.303 L 406.047 65.879 L 405.471 65.879 L 405.471 67.031 L 404.894 67.031 L 404.894 67.607 L 404.318 67.607 L 404.318 68.184 L 403.741 68.184 L 403.741 69.337 L 403.165 69.337 L 403.165 69.913 L 402.589 69.913 L 402.589 71.065 L 402.013 71.065 L 402.013 71.641 L 401.437 71.641 L 401.437 72.794 L 400.861 72.794 L 400.861 73.371 L 400.285 73.371 L 400.285 74.523 L 399.708 74.523 L 399.708 75.099 L 399.131 75.099 L 399.131 76.251 L 398.555 76.251 L 398.555 76.828 L 397.979 76.828 L 397.979 77.98 L 397.403 77.98 L 397.403 78.557 L 396.827 78.557 L 396.827 79.709 L 396.251 79.709 L 396.251 80.285 L 395.675 80.285 L 395.675 81.438 L 395.098 81.438 L 395.098 82.014 L 394.521 82.014 L 394.521 83.167 L 393.369 83.167 L 393.369 82.59 L 392.793 82.59 L 392.793 82.014 L 392.217 82.014 L 392.217 80.861 L 391.641 80.861 L 391.641 80.285 L 391.064 80.285 L 391.064 79.133 L 390.488 79.133 L 390.488 78.557 L 389.911 78.557 L 389.911 77.404 L 389.335 77.404 L 389.335 76.828 L 388.759 76.828 L 388.759 75.675 L 388.183 75.675 L 388.183 75.099 L 387.607 75.099 L 387.607 73.947 L 387.031 73.947 L 387.031 73.371 L 386.454 73.371 L 386.454 72.217 L 385.878 72.217 L 385.878 71.641 L 385.301 71.641 L 385.301 70.489 L 384.725 70.489 L 384.725 69.913 L 384.149 69.913 L 384.149 68.761 L 383.573 68.761 L 383.573 68.184 L 382.997 68.184 L 382.997 67.031 L 382.42 67.031 L 382.42 66.455 L 381.844 66.455 L 381.844 65.303 L 381.268 65.303 L 381.268 64.727 L 380.692 64.727 L 380.692 63.574 L 380.115 63.574 L 380.115 62.997 L 379.539 62.997 L 379.539 61.845 L 378.963 61.845 L 378.963 61.269 L 378.386 61.269 L 378.386 60.693 L 377.81 60.693 L 377.81 95.268 L 369.166 95.268 L 369.166 45.71 Z" style="fill: rgb(251, 251, 251);"/><path d="M 428.52 45.71 L 465.401 45.71 L 465.401 53.778 L 428.52 53.778 L 428.52 45.71 Z" style="fill: rgb(251, 251, 251);"/><path d="M 335.167 45.71 L 336.896 45.71 L 336.896 53.778 L 335.167 53.778 L 335.167 54.354 L 334.015 54.354 L 334.015 54.93 L 332.863 54.93 L 332.863 55.506 L 331.709 55.506 L 331.709 56.083 L 331.133 56.083 L 331.133 56.659 L 330.557 56.659 L 330.557 57.235 L 329.981 57.235 L 329.981 57.811 L 329.405 57.811 L 329.405 58.387 L 328.829 58.387 L 328.829 58.964 L 328.253 58.964 L 328.253 59.54 L 327.676 59.54 L 327.676 60.117 L 327.1 60.117 L 327.1 61.269 L 326.523 61.269 L 326.523 62.421 L 325.947 62.421 L 325.947 64.151 L 325.371 64.151 L 325.371 66.455 L 324.795 66.455 L 324.795 74.523 L 325.371 74.523 L 325.371 76.828 L 325.947 76.828 L 325.947 77.98 L 326.523 77.98 L 326.523 79.133 L 327.1 79.133 L 327.1 80.285 L 327.676 80.285 L 327.676 80.861 L 328.253 80.861 L 328.253 81.438 L 328.829 81.438 L 328.829 82.59 L 329.405 82.59 L 329.405 83.167 L 330.557 83.167 L 330.557 83.743 L 331.133 83.743 L 331.133 84.319 L 331.709 84.319 L 331.709 84.895 L 332.863 84.895 L 332.863 85.472 L 333.439 85.472 L 333.439 86.048 L 335.167 86.048 L 335.167 86.624 L 336.896 86.624 L 336.896 95.268 L 336.32 95.268 L 336.32 94.692 L 333.439 94.692 L 333.439 94.116 L 331.709 94.116 L 331.709 93.539 L 329.981 93.539 L 329.981 92.963 L 328.829 92.963 L 328.829 92.386 L 328.253 92.386 L 328.253 91.81 L 327.1 91.81 L 327.1 91.234 L 325.947 91.234 L 325.947 90.658 L 325.371 90.658 L 325.371 90.082 L 324.795 90.082 L 324.795 89.506 L 324.219 89.506 L 324.219 88.929 L 323.066 88.929 L 323.066 88.353 L 322.49 88.353 L 322.49 87.777 L 321.913 87.777 L 321.913 86.624 L 321.337 86.624 L 321.337 86.048 L 320.761 86.048 L 320.761 85.472 L 320.185 85.472 L 320.185 84.895 L 319.609 84.895 L 319.609 83.743 L 319.032 83.743 L 319.032 82.59 L 318.456 82.59 L 318.456 81.438 L 317.88 81.438 L 317.88 79.709 L 317.303 79.709 L 317.303 77.98 L 316.727 77.98 L 316.727 76.251 L 316.151 76.251 L 316.151 71.641 L 315.575 71.641 L 315.575 68.761 L 316.151 68.761 L 316.151 64.151 L 316.727 64.151 L 316.727 62.421 L 317.303 62.421 L 317.303 60.693 L 317.88 60.693 L 317.88 59.54 L 318.456 59.54 L 318.456 58.387 L 319.032 58.387 L 319.032 57.235 L 319.609 57.235 L 319.609 56.083 L 320.185 56.083 L 320.185 55.506 L 320.761 55.506 L 320.761 54.93 L 321.337 54.93 L 321.337 53.778 L 321.913 53.778 L 321.913 53.201 L 322.49 53.201 L 322.49 52.625 L 323.066 52.625 L 323.066 52.049 L 323.642 52.049 L 323.642 51.473 L 324.219 51.473 L 324.219 50.896 L 325.371 50.896 L 325.371 50.32 L 325.947 50.32 L 325.947 49.744 L 326.523 49.744 L 326.523 49.168 L 327.676 49.168 L 327.676 48.591 L 328.829 48.591 L 328.829 48.015 L 329.981 48.015 L 329.981 47.439 L 331.133 47.439 L 331.133 46.862 L 332.863 46.862 L 332.863 46.286 L 335.167 46.286 L 335.167 45.71 Z" style="fill: rgb(251, 251, 251);"/><path d="M 172.088 57.235 L 172.664 57.235 L 172.664 57.811 L 173.24 57.811 L 173.24 59.54 L 173.816 59.54 L 173.816 61.269 L 174.392 61.269 L 174.392 62.421 L 174.968 62.421 L 174.968 64.151 L 175.544 64.151 L 175.544 65.879 L 176.121 65.879 L 176.121 67.031 L 176.697 67.031 L 176.697 70.489 L 176.121 70.489 L 176.121 71.641 L 175.544 71.641 L 175.544 73.371 L 174.968 73.371 L 174.968 74.523 L 174.392 74.523 L 174.392 76.251 L 173.816 76.251 L 173.816 77.404 L 173.24 77.404 L 173.24 79.133 L 172.664 79.133 L 172.664 80.285 L 172.088 80.285 L 172.088 81.438 L 171.51 81.438 L 171.51 83.167 L 170.934 83.167 L 170.934 84.319 L 170.358 84.319 L 170.358 86.048 L 169.782 86.048 L 169.782 87.2 L 169.206 87.2 L 169.206 88.929 L 168.63 88.929 L 168.63 90.082 L 168.054 90.082 L 168.054 91.81 L 167.478 91.81 L 167.478 92.963 L 166.901 92.963 L 166.901 94.116 L 166.324 94.116 L 166.324 94.692 L 165.748 94.692 L 165.748 95.268 L 157.104 95.268 L 157.104 93.539 L 157.681 93.539 L 157.681 92.386 L 158.257 92.386 L 158.257 90.658 L 158.833 90.658 L 158.833 89.506 L 159.41 89.506 L 159.41 87.777 L 159.986 87.777 L 159.986 86.624 L 160.562 86.624 L 160.562 85.472 L 161.138 85.472 L 161.138 83.743 L 161.714 83.743 L 161.714 82.59 L 162.291 82.59 L 162.291 80.861 L 162.867 80.861 L 162.867 79.709 L 163.444 79.709 L 163.444 77.98 L 164.02 77.98 L 164.02 76.828 L 164.596 76.828 L 164.596 75.099 L 165.172 75.099 L 165.172 73.947 L 165.748 73.947 L 165.748 72.217 L 166.324 72.217 L 166.324 71.065 L 166.901 71.065 L 166.901 69.337 L 167.478 69.337 L 167.478 68.184 L 168.054 68.184 L 168.054 66.455 L 168.63 66.455 L 168.63 65.303 L 169.206 65.303 L 169.206 63.574 L 169.782 63.574 L 169.782 62.421 L 170.358 62.421 L 170.358 61.269 L 170.934 61.269 L 170.934 59.54 L 171.51 59.54 L 171.51 58.387 L 172.088 58.387 L 172.088 57.235 Z" style="fill: rgb(251, 251, 251);"/><path d="M 417.572 58.964 L 418.148 58.964 L 418.148 95.268 L 409.504 95.268 L 409.504 71.065 L 410.081 71.065 L 410.081 69.913 L 410.657 69.913 L 410.657 69.337 L 411.233 69.337 L 411.233 68.184 L 411.809 68.184 L 411.809 67.607 L 412.386 67.607 L 412.386 66.455 L 412.962 66.455 L 412.962 65.879 L 413.538 65.879 L 413.538 64.727 L 414.114 64.727 L 414.114 64.151 L 414.691 64.151 L 414.691 62.997 L 415.267 62.997 L 415.267 62.421 L 415.843 62.421 L 415.843 61.845 L 416.419 61.845 L 416.419 60.693 L 416.996 60.693 L 416.996 60.117 L 417.572 60.117 L 417.572 58.964 Z" style="fill: rgb(251, 251, 251);"/><path d="M 428.52 65.879 L 461.943 65.879 L 461.943 73.947 L 428.52 73.947 L 428.52 65.879 Z" style="fill: rgb(251, 251, 251);"/><path d="M 428.52 87.2 L 465.401 87.2 L 465.401 94.692 L 464.825 94.692 L 464.825 95.268 L 428.52 95.268 L 428.52 87.2 Z" style="fill: rgb(251, 251, 251);"/></svg>