<?xml version="1.0" encoding="UTF-8" standalone="no" ?>
<!DOCTYPE svg PUBLIC "-//W3C//DTD SVG 1.1//EN" "http://www.w3.org/Graphics/SVG/1.1/DTD/svg11.dtd">
<svg xmlns="http://www.w3.org/2000/svg" xmlns:xlink="http://www.w3.org/1999/xlink" version="1.1" width="640" height="480" viewBox="0 0 640 480" xml:space="preserve">
<desc>Created with Fabric.js 3.6.6</desc>
<defs>
</defs>
<g transform="matrix(0.44 0 0 0.44 319.58 242.71)"  >
<g style=""   >
		<g transform="matrix(1 0 0 1 0 0)" id="9"  >
<rect style="stroke: none; stroke-width: 1; stroke-dasharray: none; stroke-linecap: butt; stroke-dashoffset: 0; stroke-linejoin: miter; stroke-miterlimit: 4; fill: rgb(255,255,255); fill-rule: nonzero; opacity: 1; visibility: hidden;" vector-effect="non-scaling-stroke"  x="-540" y="-540" rx="0" ry="0" width="1080" height="1080" />
</g>
		<g transform="matrix(1 0 0 1 -289 0)"  >
<path style="stroke: none; stroke-width: 1; stroke-dasharray: none; stroke-linecap: butt; stroke-dashoffset: 0; stroke-linejoin: miter; stroke-miterlimit: 4; fill: rgb(255,255,255); fill-rule: nonzero; opacity: 1;" vector-effect="non-scaling-stroke"  transform=" translate(7, -112)" d="M 0 0 L 16 0 L 16 1 L 24 1 L 24 2 L 32 2 L 32 3 L 42 3 L 42 4 L 67 4 L 67 5 L 89 5 L 89 6 L 94 6 L 94 7 L 96 7 L 96 8 L 98 8 L 98 9 L 99 9 L 99 11 L 100 11 L 100 19 L 99 19 L 99 25 L 98 25 L 98 31 L 97 31 L 97 36 L 96 36 L 96 41 L 95 41 L 95 46 L 94 46 L 94 52 L 93 52 L 93 57 L 92 57 L 92 62 L 91 62 L 91 67 L 90 67 L 90 72 L 89 72 L 89 77 L 88 77 L 88 82 L 87 82 L 87 87 L 86 87 L 86 92 L 85 92 L 85 99 L 84 99 L 84 104 L 83 104 L 83 108 L 82 108 L 82 110 L 81 110 L 81 112 L 80 112 L 80 114 L 79 114 L 79 115 L 78 115 L 78 116 L 76 116 L 76 117 L 74 117 L 74 118 L 72 118 L 72 119 L 69 119 L 69 120 L 65 120 L 65 121 L 62 121 L 62 122 L 58 122 L 58 123 L 55 123 L 55 124 L 52 124 L 52 125 L 49 125 L 49 126 L 47 126 L 47 127 L 46 127 L 46 128 L 45 128 L 45 129 L 44 129 L 44 132 L 43 132 L 43 148 L 44 148 L 44 178 L 45 178 L 45 180 L 50 180 L 50 181 L 59 181 L 59 182 L 67 182 L 67 183 L 73 183 L 73 184 L 78 184 L 78 185 L 82 185 L 82 186 L 84 186 L 84 187 L 85 187 L 85 188 L 86 188 L 86 190 L 87 190 L 87 194 L 86 194 L 86 196 L 85 196 L 85 197 L 84 197 L 84 198 L 82 198 L 82 199 L 81 199 L 81 200 L 80 200 L 80 201 L 78 201 L 78 202 L 77 202 L 77 203 L 76 203 L 76 204 L 74 204 L 74 205 L 73 205 L 73 206 L 72 206 L 72 207 L 70 207 L 70 208 L 69 208 L 69 209 L 68 209 L 68 210 L 67 210 L 67 211 L 65 211 L 65 212 L 64 212 L 64 213 L 63 213 L 63 214 L 61 214 L 61 215 L 60 215 L 60 216 L 59 216 L 59 217 L 58 217 L 58 218 L 56 218 L 56 219 L 55 219 L 55 220 L 54 220 L 54 221 L 53 221 L 53 222 L 51 222 L 51 223 L 49 223 L 49 224 L 43 224 L 43 223 L 42 223 L 42 221 L 41 221 L 41 219 L 40 219 L 40 195 L 39 195 L 39 185 L 36 185 L 36 184 L 26 184 L 26 183 L 16 183 L 16 182 L 4 182 L 4 181 L -21 181 L -21 182 L -25 182 L -25 183 L -28 183 L -28 184 L -31 184 L -31 185 L -35 185 L -35 186 L -38 186 L -38 187 L -41 187 L -41 188 L -44 188 L -44 189 L -48 189 L -48 190 L -51 190 L -51 191 L -54 191 L -54 192 L -57 192 L -57 193 L -61 193 L -61 194 L -64 194 L -64 195 L -67 195 L -67 196 L -70 196 L -70 197 L -72 197 L -72 198 L -75 198 L -75 199 L -78 199 L -78 200 L -80 200 L -80 201 L -83 201 L -83 202 L -86 202 L -86 203 L -88 203 L -88 204 L -93 204 L -93 205 L -99 205 L -99 204 L -101 204 L -101 203 L -103 203 L -103 202 L -104 202 L -104 200 L -105 200 L -105 198 L -106 198 L -106 195 L -107 195 L -107 188 L -108 188 L -108 178 L -109 178 L -109 167 L -110 167 L -110 157 L -111 157 L -111 147 L -112 147 L -112 137 L -113 137 L -113 128 L -114 128 L -114 114 L -113 114 L -113 111 L -112 111 L -112 110 L -111 110 L -111 108 L -110 108 L -110 107 L -108 107 L -108 106 L -107 106 L -107 105 L -104 105 L -104 104 L -100 104 L -100 103 L -94 103 L -94 102 L -85 102 L -85 101 L -75 101 L -75 100 L -67 100 L -67 99 L -61 99 L -61 98 L -55 98 L -55 97 L -53 97 L -53 96 L -51 96 L -51 95 L -49 95 L -49 94 L -48 94 L -48 93 L -47 93 L -47 92 L -46 92 L -46 90 L -45 90 L -45 89 L -44 89 L -44 87 L -43 87 L -43 85 L -42 85 L -42 83 L -41 83 L -41 81 L -40 81 L -40 79 L -39 79 L -39 77 L -38 77 L -38 75 L -37 75 L -37 72 L -36 72 L -36 70 L -35 70 L -35 67 L -34 67 L -34 65 L -33 65 L -33 63 L -32 63 L -32 60 L -31 60 L -31 58 L -30 58 L -30 56 L -29 56 L -29 53 L -28 53 L -28 51 L -27 51 L -27 48 L -26 48 L -26 46 L -25 46 L -25 44 L -24 44 L -24 41 L -23 41 L -23 39 L -22 39 L -22 37 L -21 37 L -21 34 L -20 34 L -20 32 L -19 32 L -19 30 L -18 30 L -18 27 L -17 27 L -17 25 L -16 25 L -16 23 L -15 23 L -15 20 L -14 20 L -14 18 L -13 18 L -13 15 L -12 15 L -12 13 L -11 13 L -11 11 L -10 11 L -10 9 L -9 9 L -9 8 L -8 8 L -8 6 L -7 6 L -7 5 L -6 5 L -6 4 L -5 4 L -5 3 L -4 3 L -4 2 L -3 2 L -3 1 L 0 1 Z M 1 3 L 1 4 L -2 4 L -2 5 L -3 5 L -3 6 L -4 6 L -4 7 L -5 7 L -5 8 L -6 8 L -6 10 L -7 10 L -7 11 L -8 11 L -8 13 L -9 13 L -9 15 L -10 15 L -10 18 L -11 18 L -11 20 L -12 20 L -12 22 L -13 22 L -13 25 L -14 25 L -14 27 L -15 27 L -15 30 L -16 30 L -16 32 L -17 32 L -17 34 L -18 34 L -18 36 L -19 36 L -19 39 L -20 39 L -20 41 L -21 41 L -21 43 L -22 43 L -22 46 L -23 46 L -23 48 L -24 48 L -24 51 L -25 51 L -25 53 L -26 53 L -26 55 L -27 55 L -27 58 L -28 58 L -28 60 L -29 60 L -29 62 L -30 62 L -30 65 L -31 65 L -31 67 L -32 67 L -32 70 L -33 70 L -33 72 L -34 72 L -34 74 L -35 74 L -35 77 L -36 77 L -36 79 L -37 79 L -37 81 L -38 81 L -38 83 L -39 83 L -39 85 L -40 85 L -40 87 L -41 87 L -41 89 L -42 89 L -42 92 L -39 92 L -39 93 L -37 93 L -37 94 L -35 94 L -35 95 L -34 95 L -34 96 L -33 96 L -33 97 L -32 97 L -32 98 L -30 98 L -30 99 L -29 99 L -29 100 L -28 100 L -28 101 L -26 101 L -26 102 L -25 102 L -25 103 L -23 103 L -23 104 L -22 104 L -22 105 L -20 105 L -20 106 L -18 106 L -18 107 L -17 107 L -17 108 L -15 108 L -15 109 L -12 109 L -12 110 L -10 110 L -10 111 L -8 111 L -8 112 L -5 112 L -5 113 L -1 113 L -1 114 L 3 114 L 3 115 L 9 115 L 9 116 L 25 116 L 25 117 L 36 117 L 36 116 L 49 116 L 49 115 L 55 115 L 55 114 L 59 114 L 59 113 L 62 113 L 62 112 L 64 112 L 64 111 L 66 111 L 66 110 L 68 110 L 68 109 L 69 109 L 69 108 L 71 108 L 71 107 L 73 107 L 73 106 L 74 106 L 74 105 L 77 105 L 77 104 L 81 104 L 81 100 L 82 100 L 82 94 L 83 94 L 83 89 L 84 89 L 84 84 L 85 84 L 85 79 L 86 79 L 86 74 L 87 74 L 87 68 L 88 68 L 88 63 L 89 63 L 89 58 L 90 58 L 90 53 L 91 53 L 91 48 L 92 48 L 92 43 L 93 43 L 93 37 L 94 37 L 94 32 L 95 32 L 95 26 L 96 26 L 96 21 L 97 21 L 97 12 L 96 12 L 96 10 L 94 10 L 94 9 L 91 9 L 91 8 L 72 8 L 72 7 L 45 7 L 45 6 L 33 6 L 33 5 L 26 5 L 26 4 L 18 4 L 18 3 Z M -44 93 L -44 94 L -45 94 L -45 95 L -46 95 L -46 96 L -47 96 L -47 97 L -48 97 L -48 98 L -50 98 L -50 99 L -52 99 L -52 100 L -55 100 L -55 101 L -60 101 L -60 102 L -67 102 L -67 103 L -76 103 L -76 104 L -86 104 L -86 105 L -94 105 L -94 106 L -100 106 L -100 107 L -103 107 L -103 108 L -106 108 L -106 109 L -107 109 L -107 110 L -108 110 L -108 111 L -109 111 L -109 112 L -110 112 L -110 113 L -111 113 L -111 128 L -110 128 L -110 138 L -109 138 L -109 141 L -104 141 L -104 142 L -98 142 L -98 143 L -92 143 L -92 144 L -86 144 L -86 145 L -80 145 L -80 146 L -73 146 L -73 147 L -67 147 L -67 148 L -60 148 L -60 149 L -52 149 L -52 150 L -43 150 L -43 151 L -32 151 L -32 152 L -20 152 L -20 153 L -8 153 L -8 154 L 4 154 L 4 155 L 17 155 L 17 156 L 30 156 L 30 157 L 39 157 L 39 155 L 40 155 L 40 133 L 41 133 L 41 129 L 42 129 L 42 127 L 43 127 L 43 126 L 44 126 L 44 125 L 45 125 L 45 124 L 46 124 L 46 123 L 48 123 L 48 122 L 51 122 L 51 121 L 54 121 L 54 120 L 58 120 L 58 119 L 61 119 L 61 118 L 65 118 L 65 117 L 68 117 L 68 116 L 71 116 L 71 115 L 74 115 L 74 114 L 75 114 L 75 113 L 77 113 L 77 112 L 78 112 L 78 110 L 79 110 L 79 108 L 80 108 L 80 106 L 76 106 L 76 107 L 74 107 L 74 108 L 73 108 L 73 109 L 71 109 L 71 110 L 70 110 L 70 111 L 68 111 L 68 112 L 66 112 L 66 113 L 64 113 L 64 114 L 61 114 L 61 115 L 58 115 L 58 116 L 54 116 L 54 117 L 47 117 L 47 118 L 11 118 L 11 117 L 3 117 L 3 116 L -2 116 L -2 115 L -5 115 L -5 114 L -8 114 L -8 113 L -11 113 L -11 112 L -13 112 L -13 111 L -15 111 L -15 110 L -17 110 L -17 109 L -19 109 L -19 108 L -21 108 L -21 107 L -22 107 L -22 106 L -24 106 L -24 105 L -25 105 L -25 104 L -27 104 L -27 103 L -28 103 L -28 102 L -30 102 L -30 101 L -31 101 L -31 100 L -32 100 L -32 99 L -34 99 L -34 98 L -35 98 L -35 97 L -36 97 L -36 96 L -38 96 L -38 95 L -39 95 L -39 94 L -42 94 L -42 93 Z M -106 144 L -106 153 L -105 153 L -105 163 L -104 163 L -104 174 L -103 174 L -103 184 L -102 184 L -102 193 L -101 193 L -101 197 L -100 197 L -100 198 L -99 198 L -99 199 L -90 199 L -90 198 L -87 198 L -87 197 L -84 197 L -84 196 L -82 196 L -82 195 L -79 195 L -79 194 L -77 194 L -77 193 L -74 193 L -74 192 L -71 192 L -71 191 L -68 191 L -68 190 L -65 190 L -65 189 L -62 189 L -62 188 L -59 188 L -59 187 L -56 187 L -56 186 L -52 186 L -52 185 L -49 185 L -49 184 L -46 184 L -46 183 L -43 183 L -43 182 L -39 182 L -39 181 L -36 181 L -36 180 L -33 180 L -33 179 L -30 179 L -30 178 L -26 178 L -26 177 L -23 177 L -23 176 L -14 176 L -14 175 L -4 175 L -4 176 L 11 176 L 11 177 L 21 177 L 21 178 L 31 178 L 31 179 L 39 179 L 39 160 L 33 160 L 33 159 L 20 159 L 20 158 L 7 158 L 7 157 L -6 157 L -6 156 L -18 156 L -18 155 L -30 155 L -30 154 L -41 154 L -41 153 L -50 153 L -50 152 L -58 152 L -58 151 L -65 151 L -65 150 L -72 150 L -72 149 L -78 149 L -78 148 L -85 148 L -85 147 L -91 147 L -91 146 L -97 146 L -97 145 L -103 145 L -103 144 Z M 45 186 L 45 217 L 46 217 L 46 219 L 47 219 L 47 218 L 49 218 L 49 217 L 50 217 L 50 216 L 51 216 L 51 215 L 53 215 L 53 214 L 54 214 L 54 213 L 55 213 L 55 212 L 56 212 L 56 211 L 58 211 L 58 210 L 59 210 L 59 209 L 60 209 L 60 208 L 62 208 L 62 207 L 63 207 L 63 206 L 64 206 L 64 205 L 65 205 L 65 204 L 67 204 L 67 203 L 68 203 L 68 202 L 69 202 L 69 201 L 71 201 L 71 200 L 72 200 L 72 199 L 73 199 L 73 198 L 75 198 L 75 197 L 76 197 L 76 196 L 77 196 L 77 195 L 79 195 L 79 194 L 80 194 L 80 193 L 81 193 L 81 191 L 79 191 L 79 190 L 75 190 L 75 189 L 69 189 L 69 188 L 62 188 L 62 187 L 54 187 L 54 186 Z" stroke-linecap="round" />
</g>
		<g transform="matrix(1 0 0 1 -80.5 2)"  >
<path style="stroke: none; stroke-width: 1; stroke-dasharray: none; stroke-linecap: butt; stroke-dashoffset: 0; stroke-linejoin: miter; stroke-miterlimit: 4; fill: rgb(255,255,255); fill-rule: nonzero; opacity: 1;" vector-effect="non-scaling-stroke"  transform=" translate(-23.5, -43)" d="M 0 0 L 16 0 L 16 1 L 17 1 L 17 4 L 18 4 L 18 6 L 19 6 L 19 9 L 20 9 L 20 12 L 21 12 L 21 15 L 22 15 L 22 17 L 23 17 L 23 20 L 24 20 L 24 23 L 25 23 L 25 25 L 26 25 L 26 28 L 27 28 L 27 31 L 28 31 L 28 34 L 29 34 L 29 36 L 30 36 L 30 39 L 31 39 L 31 42 L 32 42 L 32 45 L 33 45 L 33 47 L 34 47 L 34 50 L 35 50 L 35 53 L 36 53 L 36 56 L 37 56 L 37 58 L 38 58 L 38 61 L 39 61 L 39 64 L 40 64 L 40 67 L 41 67 L 41 69 L 42 69 L 42 72 L 43 72 L 43 75 L 44 75 L 44 78 L 45 78 L 45 80 L 46 80 L 46 83 L 47 83 L 47 86 L 31 86 L 31 84 L 30 84 L 30 81 L 29 81 L 29 79 L 28 79 L 28 76 L 27 76 L 27 73 L 26 73 L 26 71 L 25 71 L 25 68 L 24 68 L 24 66 L 23 66 L 23 63 L 22 63 L 22 61 L 21 61 L 21 58 L 20 58 L 20 55 L 19 55 L 19 53 L 18 53 L 18 50 L 17 50 L 17 47 L 16 47 L 16 44 L 15 44 L 15 42 L 14 42 L 14 39 L 13 39 L 13 36 L 12 36 L 12 33 L 11 33 L 11 30 L 10 30 L 10 27 L 9 27 L 9 25 L 8 25 L 8 22 L 7 22 L 7 19 L 6 19 L 6 16 L 5 16 L 5 13 L 4 13 L 4 11 L 3 11 L 3 8 L 2 8 L 2 5 L 1 5 L 1 2 L 0 2 Z" stroke-linecap="round" />
</g>
		<g transform="matrix(1 0 0 1 -5.5 2)"  >
<path style="stroke: none; stroke-width: 1; stroke-dasharray: none; stroke-linecap: butt; stroke-dashoffset: 0; stroke-linejoin: miter; stroke-miterlimit: 4; fill: rgb(255,255,255); fill-rule: nonzero; opacity: 1;" vector-effect="non-scaling-stroke"  transform=" translate(-36.5, -43)" d="M 0 0 L 47 0 L 47 1 L 52 1 L 52 2 L 54 2 L 54 3 L 57 3 L 57 4 L 58 4 L 58 5 L 60 5 L 60 6 L 61 6 L 61 7 L 63 7 L 63 9 L 64 9 L 64 10 L 65 10 L 65 11 L 66 11 L 66 12 L 67 12 L 67 14 L 68 14 L 68 16 L 69 16 L 69 20 L 70 20 L 70 26 L 71 26 L 71 29 L 70 29 L 70 35 L 69 35 L 69 38 L 68 38 L 68 41 L 67 41 L 67 42 L 66 42 L 66 43 L 65 43 L 65 45 L 64 45 L 64 46 L 63 46 L 63 47 L 61 47 L 61 48 L 60 48 L 60 49 L 59 49 L 59 50 L 57 50 L 57 51 L 55 51 L 55 52 L 52 52 L 52 53 L 50 53 L 50 54 L 51 54 L 51 55 L 52 55 L 52 57 L 53 57 L 53 58 L 54 58 L 54 59 L 55 59 L 55 61 L 56 61 L 56 62 L 57 62 L 57 64 L 58 64 L 58 65 L 59 65 L 59 66 L 60 66 L 60 68 L 61 68 L 61 69 L 62 69 L 62 70 L 63 70 L 63 72 L 64 72 L 64 73 L 65 73 L 65 75 L 66 75 L 66 76 L 67 76 L 67 77 L 68 77 L 68 79 L 69 79 L 69 80 L 70 80 L 70 82 L 71 82 L 71 83 L 72 83 L 72 84 L 73 84 L 73 86 L 55 86 L 55 85 L 54 85 L 54 83 L 53 83 L 53 82 L 52 82 L 52 80 L 51 80 L 51 79 L 50 79 L 50 78 L 49 78 L 49 76 L 48 76 L 48 75 L 47 75 L 47 73 L 46 73 L 46 72 L 45 72 L 45 70 L 44 70 L 44 69 L 43 69 L 43 68 L 42 68 L 42 66 L 41 66 L 41 65 L 40 65 L 40 63 L 39 63 L 39 62 L 38 62 L 38 60 L 37 60 L 37 59 L 36 59 L 36 58 L 35 58 L 35 56 L 15 56 L 15 86 L 0 86 L 0 42 L 44 42 L 44 41 L 47 41 L 47 40 L 49 40 L 49 39 L 50 39 L 50 38 L 51 38 L 51 37 L 52 37 L 52 36 L 53 36 L 53 34 L 54 34 L 54 32 L 55 32 L 55 23 L 54 23 L 54 21 L 53 21 L 53 19 L 52 19 L 52 18 L 51 18 L 51 17 L 49 17 L 49 16 L 47 16 L 47 15 L 44 15 L 44 14 L 0 14 Z" stroke-linecap="round" />
</g>
		<g transform="matrix(1 0 0 1 59 2)"  >
<path style="stroke: none; stroke-width: 1; stroke-dasharray: none; stroke-linecap: butt; stroke-dashoffset: 0; stroke-linejoin: miter; stroke-miterlimit: 4; fill: rgb(255,255,255); fill-rule: nonzero; opacity: 1;" vector-effect="non-scaling-stroke"  transform=" translate(-8, -43)" d="M 0 0 L 16 0 L 16 86 L 1 86 L 1 85 L 0 85 Z" stroke-linecap="round" />
</g>
		<g transform="matrix(1 0 0 1 102 2)"  >
<path style="stroke: none; stroke-width: 1; stroke-dasharray: none; stroke-linecap: butt; stroke-dashoffset: 0; stroke-linejoin: miter; stroke-miterlimit: 4; fill: rgb(255,255,255); fill-rule: nonzero; opacity: 1;" vector-effect="non-scaling-stroke"  transform=" translate(6, -43)" d="M 0 0 L 15 0 L 15 86 L 0 86 L 0 50 L -26 50 L -26 49 L -27 49 L -27 36 L -26 36 L -26 35 L 0 35 Z" stroke-linecap="round" />
</g>
		<g transform="matrix(1 0 0 1 204 2)"  >
<path style="stroke: none; stroke-width: 1; stroke-dasharray: none; stroke-linecap: butt; stroke-dashoffset: 0; stroke-linejoin: miter; stroke-miterlimit: 4; fill: rgb(255,255,255); fill-rule: nonzero; opacity: 1;" vector-effect="non-scaling-stroke"  transform=" translate(-18, -43)" d="M 0 0 L 4 0 L 4 1 L 8 1 L 8 2 L 11 2 L 11 3 L 13 3 L 13 4 L 14 4 L 14 5 L 16 5 L 16 6 L 18 6 L 18 7 L 19 7 L 19 8 L 20 8 L 20 9 L 22 9 L 22 10 L 23 10 L 23 11 L 24 11 L 24 12 L 25 12 L 25 13 L 26 13 L 26 15 L 27 15 L 27 16 L 28 16 L 28 17 L 29 17 L 29 19 L 30 19 L 30 21 L 31 21 L 31 23 L 32 23 L 32 24 L 33 24 L 33 27 L 34 27 L 34 31 L 35 31 L 35 34 L 36 34 L 36 52 L 35 52 L 35 55 L 34 55 L 34 59 L 33 59 L 33 61 L 32 61 L 32 63 L 31 63 L 31 65 L 30 65 L 30 67 L 29 67 L 29 68 L 28 68 L 28 69 L 27 69 L 27 71 L 26 71 L 26 72 L 25 72 L 25 73 L 24 73 L 24 74 L 23 74 L 23 75 L 22 75 L 22 76 L 21 76 L 21 77 L 19 77 L 19 78 L 18 78 L 18 79 L 16 79 L 16 80 L 15 80 L 15 81 L 13 81 L 13 82 L 11 82 L 11 83 L 8 83 L 8 84 L 5 84 L 5 85 L 1 85 L 1 86 L 0 86 L 0 72 L 1 72 L 1 71 L 4 71 L 4 70 L 6 70 L 6 69 L 8 69 L 8 68 L 9 68 L 9 67 L 10 67 L 10 66 L 11 66 L 11 65 L 13 65 L 13 63 L 14 63 L 14 62 L 15 62 L 15 61 L 16 61 L 16 59 L 17 59 L 17 57 L 18 57 L 18 55 L 19 55 L 19 52 L 20 52 L 20 49 L 21 49 L 21 36 L 20 36 L 20 33 L 19 33 L 19 30 L 18 30 L 18 28 L 17 28 L 17 26 L 16 26 L 16 25 L 15 25 L 15 23 L 14 23 L 14 22 L 13 22 L 13 21 L 12 21 L 12 20 L 11 20 L 11 19 L 10 19 L 10 18 L 8 18 L 8 17 L 6 17 L 6 16 L 5 16 L 5 15 L 2 15 L 2 14 L 0 14 Z" stroke-linecap="round" />
</g>
		<g transform="matrix(1 0 0 1 271.5 2)"  >
<path style="stroke: none; stroke-width: 1; stroke-dasharray: none; stroke-linecap: butt; stroke-dashoffset: 0; stroke-linejoin: miter; stroke-miterlimit: 4; fill: rgb(255,255,255); fill-rule: nonzero; opacity: 1;" vector-effect="non-scaling-stroke"  transform=" translate(-42.5, -43)" d="M 0 0 L 17 0 L 17 1 L 18 1 L 18 3 L 19 3 L 19 5 L 20 5 L 20 6 L 21 6 L 21 8 L 22 8 L 22 9 L 23 9 L 23 11 L 24 11 L 24 12 L 25 12 L 25 14 L 26 14 L 26 16 L 27 16 L 27 17 L 28 17 L 28 19 L 29 19 L 29 20 L 30 20 L 30 22 L 31 22 L 31 23 L 32 23 L 32 25 L 33 25 L 33 26 L 34 26 L 34 28 L 35 28 L 35 30 L 36 30 L 36 31 L 37 31 L 37 33 L 38 33 L 38 34 L 39 34 L 39 36 L 40 36 L 40 37 L 41 37 L 41 39 L 42 39 L 42 41 L 43 41 L 43 39 L 44 39 L 44 38 L 45 38 L 45 36 L 46 36 L 46 34 L 47 34 L 47 33 L 48 33 L 48 31 L 49 31 L 49 30 L 50 30 L 50 28 L 51 28 L 51 27 L 52 27 L 52 25 L 53 25 L 53 24 L 54 24 L 54 22 L 55 22 L 55 20 L 56 20 L 56 19 L 57 19 L 57 17 L 58 17 L 58 16 L 59 16 L 59 14 L 60 14 L 60 13 L 61 13 L 61 11 L 62 11 L 62 10 L 63 10 L 63 8 L 64 8 L 64 7 L 65 7 L 65 5 L 66 5 L 66 3 L 67 3 L 67 2 L 68 2 L 68 0 L 85 0 L 85 2 L 84 2 L 84 3 L 83 3 L 83 5 L 82 5 L 82 6 L 81 6 L 81 8 L 80 8 L 80 10 L 79 10 L 79 11 L 78 11 L 78 13 L 77 13 L 77 14 L 76 14 L 76 16 L 75 16 L 75 18 L 74 18 L 74 19 L 73 19 L 73 21 L 72 21 L 72 22 L 71 22 L 71 24 L 70 24 L 70 26 L 69 26 L 69 27 L 68 27 L 68 29 L 67 29 L 67 31 L 66 31 L 66 32 L 65 32 L 65 34 L 64 34 L 64 35 L 63 35 L 63 37 L 62 37 L 62 38 L 61 38 L 61 39 L 60 39 L 60 41 L 59 41 L 59 42 L 58 42 L 58 44 L 57 44 L 57 45 L 56 45 L 56 47 L 55 47 L 55 48 L 54 48 L 54 50 L 53 50 L 53 51 L 52 51 L 52 53 L 51 53 L 51 54 L 50 54 L 50 56 L 49 56 L 49 57 L 48 57 L 48 59 L 47 59 L 47 60 L 46 60 L 46 62 L 45 62 L 45 63 L 44 63 L 44 65 L 42 65 L 42 64 L 41 64 L 41 63 L 40 63 L 40 61 L 39 61 L 39 60 L 38 60 L 38 58 L 37 58 L 37 57 L 36 57 L 36 55 L 35 55 L 35 54 L 34 54 L 34 52 L 33 52 L 33 51 L 32 51 L 32 49 L 31 49 L 31 48 L 30 48 L 30 46 L 29 46 L 29 45 L 28 45 L 28 43 L 27 43 L 27 42 L 26 42 L 26 40 L 25 40 L 25 39 L 24 39 L 24 37 L 23 37 L 23 36 L 22 36 L 22 34 L 21 34 L 21 33 L 20 33 L 20 31 L 19 31 L 19 30 L 18 30 L 18 28 L 17 28 L 17 27 L 16 27 L 16 26 L 15 26 L 15 86 L 0 86 Z" stroke-linecap="round" />
</g>
		<g transform="matrix(1 0 0 1 364 -34)"  >
<path style="stroke: none; stroke-width: 1; stroke-dasharray: none; stroke-linecap: butt; stroke-dashoffset: 0; stroke-linejoin: miter; stroke-miterlimit: 4; fill: rgb(255,255,255); fill-rule: nonzero; opacity: 1;" vector-effect="non-scaling-stroke"  transform=" translate(-32, -7)" d="M 0 0 L 64 0 L 64 14 L 0 14 Z" stroke-linecap="round" />
</g>
		<g transform="matrix(1 0 0 1 154.5 2)"  >
<path style="stroke: none; stroke-width: 1; stroke-dasharray: none; stroke-linecap: butt; stroke-dashoffset: 0; stroke-linejoin: miter; stroke-miterlimit: 4; fill: rgb(255,255,255); fill-rule: nonzero; opacity: 1;" vector-effect="non-scaling-stroke"  transform=" translate(15.5, -43)" d="M 0 0 L 3 0 L 3 14 L 0 14 L 0 15 L -2 15 L -2 16 L -4 16 L -4 17 L -6 17 L -6 18 L -7 18 L -7 19 L -8 19 L -8 20 L -9 20 L -9 21 L -10 21 L -10 22 L -11 22 L -11 23 L -12 23 L -12 24 L -13 24 L -13 25 L -14 25 L -14 27 L -15 27 L -15 29 L -16 29 L -16 32 L -17 32 L -17 36 L -18 36 L -18 50 L -17 50 L -17 54 L -16 54 L -16 56 L -15 56 L -15 58 L -14 58 L -14 60 L -13 60 L -13 61 L -12 61 L -12 62 L -11 62 L -11 64 L -10 64 L -10 65 L -8 65 L -8 66 L -7 66 L -7 67 L -6 67 L -6 68 L -4 68 L -4 69 L -3 69 L -3 70 L 0 70 L 0 71 L 3 71 L 3 86 L 2 86 L 2 85 L -3 85 L -3 84 L -6 84 L -6 83 L -9 83 L -9 82 L -11 82 L -11 81 L -12 81 L -12 80 L -14 80 L -14 79 L -16 79 L -16 78 L -17 78 L -17 77 L -18 77 L -18 76 L -19 76 L -19 75 L -21 75 L -21 74 L -22 74 L -22 73 L -23 73 L -23 71 L -24 71 L -24 70 L -25 70 L -25 69 L -26 69 L -26 68 L -27 68 L -27 66 L -28 66 L -28 64 L -29 64 L -29 62 L -30 62 L -30 59 L -31 59 L -31 56 L -32 56 L -32 53 L -33 53 L -33 45 L -34 45 L -34 40 L -33 40 L -33 32 L -32 32 L -32 29 L -31 29 L -31 26 L -30 26 L -30 24 L -29 24 L -29 22 L -28 22 L -28 20 L -27 20 L -27 18 L -26 18 L -26 17 L -25 17 L -25 16 L -24 16 L -24 14 L -23 14 L -23 13 L -22 13 L -22 12 L -21 12 L -21 11 L -20 11 L -20 10 L -19 10 L -19 9 L -17 9 L -17 8 L -16 8 L -16 7 L -15 7 L -15 6 L -13 6 L -13 5 L -11 5 L -11 4 L -9 4 L -9 3 L -7 3 L -7 2 L -4 2 L -4 1 L 0 1 Z" stroke-linecap="round" />
</g>
		<g transform="matrix(1 0 0 1 -122 12)"  >
<path style="stroke: none; stroke-width: 1; stroke-dasharray: none; stroke-linecap: butt; stroke-dashoffset: 0; stroke-linejoin: miter; stroke-miterlimit: 4; fill: rgb(255,255,255); fill-rule: nonzero; opacity: 1;" vector-effect="non-scaling-stroke"  transform=" translate(9, -33)" d="M 0 0 L 1 0 L 1 1 L 2 1 L 2 4 L 3 4 L 3 7 L 4 7 L 4 9 L 5 9 L 5 12 L 6 12 L 6 15 L 7 15 L 7 17 L 8 17 L 8 23 L 7 23 L 7 25 L 6 25 L 6 28 L 5 28 L 5 30 L 4 30 L 4 33 L 3 33 L 3 35 L 2 35 L 2 38 L 1 38 L 1 40 L 0 40 L 0 42 L -1 42 L -1 45 L -2 45 L -2 47 L -3 47 L -3 50 L -4 50 L -4 52 L -5 52 L -5 55 L -6 55 L -6 57 L -7 57 L -7 60 L -8 60 L -8 62 L -9 62 L -9 64 L -10 64 L -10 65 L -11 65 L -11 66 L -26 66 L -26 63 L -25 63 L -25 61 L -24 61 L -24 58 L -23 58 L -23 56 L -22 56 L -22 53 L -21 53 L -21 51 L -20 51 L -20 49 L -19 49 L -19 46 L -18 46 L -18 44 L -17 44 L -17 41 L -16 41 L -16 39 L -15 39 L -15 36 L -14 36 L -14 34 L -13 34 L -13 31 L -12 31 L -12 29 L -11 29 L -11 26 L -10 26 L -10 24 L -9 24 L -9 21 L -8 21 L -8 19 L -7 19 L -7 16 L -6 16 L -6 14 L -5 14 L -5 11 L -4 11 L -4 9 L -3 9 L -3 7 L -2 7 L -2 4 L -1 4 L -1 2 L 0 2 Z" stroke-linecap="round" />
</g>
		<g transform="matrix(1 0 0 1 306.5 13.5)"  >
<path style="stroke: none; stroke-width: 1; stroke-dasharray: none; stroke-linecap: butt; stroke-dashoffset: 0; stroke-linejoin: miter; stroke-miterlimit: 4; fill: rgb(255,255,255); fill-rule: nonzero; opacity: 1;" vector-effect="non-scaling-stroke"  transform=" translate(6.5, -31.5)" d="M 0 0 L 1 0 L 1 63 L -14 63 L -14 21 L -13 21 L -13 19 L -12 19 L -12 18 L -11 18 L -11 16 L -10 16 L -10 15 L -9 15 L -9 13 L -8 13 L -8 12 L -7 12 L -7 10 L -6 10 L -6 9 L -5 9 L -5 7 L -4 7 L -4 6 L -3 6 L -3 5 L -2 5 L -2 3 L -1 3 L -1 2 L 0 2 Z" stroke-linecap="round" />
</g>
		<g transform="matrix(1 0 0 1 361 1)"  >
<path style="stroke: none; stroke-width: 1; stroke-dasharray: none; stroke-linecap: butt; stroke-dashoffset: 0; stroke-linejoin: miter; stroke-miterlimit: 4; fill: rgb(255,255,255); fill-rule: nonzero; opacity: 1;" vector-effect="non-scaling-stroke"  transform=" translate(-29, -7)" d="M 0 0 L 58 0 L 58 14 L 0 14 Z" stroke-linecap="round" />
</g>
		<g transform="matrix(1 0 0 1 364 38)"  >
<path style="stroke: none; stroke-width: 1; stroke-dasharray: none; stroke-linecap: butt; stroke-dashoffset: 0; stroke-linejoin: miter; stroke-miterlimit: 4; fill: rgb(255,255,255); fill-rule: nonzero; opacity: 1;" vector-effect="non-scaling-stroke"  transform=" translate(-32, -7)" d="M 0 0 L 64 0 L 64 13 L 63 13 L 63 14 L 0 14 Z" stroke-linecap="round" />
</g>
</g>
</g>
</svg>